<svg xmlns="http://www.w3.org/2000/svg" viewBox="0 5.269999980926514 172.61000061035156 43.38999938964844" data-asc="0.82373046875" width="172.61000061035156" height="43.38999938964844"><defs/><g fill="#000000"><g transform="translate(0, 0)"><path d="M33.89 24.37L33.89 24.83Q33.84 26.88 33.46 29.08Q33.08 31.27 32.40 33.47Q31.71 35.67 30.76 37.82Q29.81 39.97 28.63 41.93Q27.44 43.90 26.07 45.62Q24.71 47.34 23.19 48.66L19.56 46.56Q20.41 45.12 21.11 43.42Q21.80 41.72 22.36 39.87Q22.92 38.01 23.33 36.06Q23.73 34.11 24.00 32.18Q24.27 30.25 24.40 28.38Q24.54 26.51 24.54 24.83Q24.54 23.51 24.52 21.84Q24.51 20.17 24.33 18.43Q24.15 16.70 23.73 15.05Q23.32 13.40 22.50 12.11Q21.68 10.82 20.40 10.03Q19.12 9.25 17.21 9.25Q15.53 9.25 14.32 9.83Q13.11 10.40 12.27 11.36Q11.43 12.33 10.93 13.60Q10.42 14.87 10.14 16.27Q9.86 17.68 9.78 19.10Q9.69 20.53 9.69 21.80L9.69 28.61L20.21 28.61L20.21 32.64L9.69 32.64L9.69 41.19L0 41.19L0 23.32Q0 19.48 1.22 16.19Q2.44 12.89 4.68 10.46Q6.91 8.03 10.05 6.65Q13.18 5.27 17.04 5.27Q19.65 5.27 21.94 6.02Q24.22 6.76 26.10 8.07Q27.98 9.38 29.46 11.17Q30.93 12.96 31.92 15.09Q32.91 17.21 33.42 19.58Q33.94 21.95 33.89 24.37ZM46.70 14.97L43.97 41.19L37.99 41.19L43.97 6.03L52.83 6.03L61.06 32.86L69.38 6.03L78.25 6.03L83.23 41.19L73.36 41.19L70.46 15.65L63.60 41.19L54.74 41.19L46.70 14.97ZM99.32 41.19L89.62 41.19L89.62 6.03L99.32 6.03L99.32 41.19ZM111.77 41.19L107.28 41.19L107.28 6.03L113.57 6.03L134.94 30.18L134.94 6.03L139.40 6.03L139.40 41.19L133.11 41.19L111.77 17.07L111.77 41.19ZM172.61 41.19L147.36 41.19L147.36 6.03L172.61 6.03L172.61 10.52L157.06 10.52L157.06 21.39L169.07 21.39L169.07 25.85L157.06 25.85L157.06 36.69L172.61 36.69L172.61 41.19Z"/></g></g></svg>